<?xml version="1.0" encoding="UTF-8" standalone="no"?>
<!DOCTYPE svg PUBLIC "-//W3C//DTD SVG 1.1//EN" "http://www.w3.org/Graphics/SVG/1.1/DTD/svg11.dtd">
<!-- Generated by Microsoft Visio, SVG Export DAQ-Architecture-white.svg Page-1 -->
<svg xmlns="http://www.w3.org/2000/svg" xmlns:xlink="http://www.w3.org/1999/xlink" xmlns:ev="http://www.w3.org/2001/xml-events"
		xmlns:v="http://schemas.microsoft.com/visio/2003/SVGExtensions/" width="7.95924in" height="5.5679in"
		viewBox="0 0 573.065 400.889" xml:space="preserve" color-interpolation-filters="sRGB" class="st12">
	<v:documentProperties v:langID="4105" v:metric="true" v:viewMarkup="false"/>

	<style type="text/css">
	<![CDATA[
		.st1 {marker-start:url(#mrkr5-6);stroke:#ffffff;stroke-linecap:round;stroke-linejoin:round;stroke-width:2.25}
		.st2 {fill:#ffffff;fill-opacity:1;stroke:#ffffff;stroke-opacity:1;stroke-width:0.47169811320755}
		.st3 {fill:none;stroke:#ffffff;stroke-dasharray:5.25,3.75;stroke-linecap:round;stroke-linejoin:round;stroke-width:0.75}
		.st4 {fill:#ffffff;font-family:Calibri;font-size:1.00001em}
		.st5 {marker-end:url(#mrkr20-15);stroke:#ffffff;stroke-linecap:round;stroke-linejoin:round;stroke-width:0.75}
		.st6 {fill:#ffffff;fill-opacity:1;stroke:#ffffff;stroke-opacity:1;stroke-width:0.22935779816514}
		.st7 {fill:none;stroke:#ffffff;stroke-linecap:round;stroke-linejoin:round;stroke-width:0.75}
		.st8 {stroke:#ffffff;stroke-linecap:round;stroke-linejoin:round;stroke-width:0.75}
		.st9 {marker-end:url(#mrkr5-45);marker-start:url(#mrkr5-6);stroke:#ffffff;stroke-linecap:round;stroke-linejoin:round;stroke-width:2.25}
		.st10 {font-size:1em}
		.st11 {fill:none;stroke:none;stroke-linecap:round;stroke-linejoin:round;stroke-width:0.75}
		.st12 {fill:none;fill-rule:evenodd;font-size:12px;overflow:visible;stroke-linecap:square;stroke-miterlimit:3}
	]]>
	</style>

	<defs id="Markers">
		<g id="lend5">
			<path d="M 2 1 L 0 0 L 1.98117 -0.993387 C 1.67173 -0.364515 1.67301 0.372641 1.98465 1.00043 " style="stroke:none"/>
		</g>
		<marker id="mrkr5-6" class="st2" v:arrowType="5" v:arrowSize="2" v:setback="3.55" refX="3.55" orient="auto"
				markerUnits="strokeWidth" overflow="visible">
			<use xlink:href="#lend5" transform="scale(2.12) "/>
		</marker>
		<g id="lend20">
			<path
					d="M 0 0.75 C -0.414214 0.75 -0.75 0.414214 -0.75 0 -0.75 -0.414214 -0.414214 -0.75 0 -0.75 0.414214 -0.75 0.75 -0.414214 0.75 0 0.75 0.414214 0.414214 0.75 0 0.75 Z "
					style="stroke-linecap:round;stroke-linejoin:round;fill:none"/>
		</g>
		<marker id="mrkr20-15" class="st6" v:arrowType="20" v:arrowSize="2" v:setback="3.27" refX="-3.27" orient="auto"
				markerUnits="strokeWidth" overflow="visible">
			<use xlink:href="#lend20" transform="scale(-4.36,-4.36) "/>
		</marker>
		<marker id="mrkr5-45" class="st2" v:arrowType="5" v:arrowSize="2" v:setback="3.71" refX="-3.71" orient="auto"
				markerUnits="strokeWidth" overflow="visible">
			<use xlink:href="#lend5" transform="scale(-2.12,-2.12) "/>
		</marker>
	</defs>
	<g v:mID="0" v:index="1" v:groupContext="foregroundPage">
		<title>Page-1</title>
		<v:pageProperties v:drawingScale="0.0393701" v:pageScale="0.0393701" v:drawingUnits="24" v:shadowOffsetX="8.50394"
				v:shadowOffsetY="-8.50394"/>
		<v:layer v:name="Connector" v:index="0"/>
		<g id="shape16-1" v:mID="16" v:groupContext="shape" v:layerMember="0" transform="translate(175.84,-73.0283)">
			<title>Dynamic connector.16</title>
			<path d="M7.99 400.89 L8.35 400.89 L99.21 400.89 L99.21 233.73" class="st1"/>
		</g>
		<g id="shape1-7" v:mID="1" v:groupContext="shape" transform="translate(-281.93,214.558) rotate(-90)">
			<title>Sheet.1</title>
			<desc>KERNEL /ADC</desc>
			<v:textBlock v:margins="rect(4,4,4,4)" v:tabSpace="42.5197"/>
			<v:textRect cx="53.8583" cy="388.133" width="107.72" height="25.5118"/>
			<path d="M0 400.89 L107.72 400.89 L107.72 375.38 L0 375.38 L0 400.89 Z" class="st3"/>
			<text x="21.19" y="391.73" class="st4" v:langID="1033"><v:paragraph v:horizAlign="1"/><v:tabList/>KERNEL /ADC</text>		</g>
		<g id="shape3-10" v:mID="3" v:groupContext="shape" v:layerMember="0" transform="translate(83.4301,-207.59)">
			<title>Dynamic connector</title>
			<path d="M0 393.8 L-20.22 393.8" class="st5"/>
		</g>
		<g id="shape4-16" v:mID="4" v:groupContext="shape" v:layerMember="0" transform="translate(83.4301,-250.11)">
			<title>Dynamic connector.4</title>
			<path d="M0 407.98 L-20.22 407.98" class="st5"/>
		</g>
		<g id="shape5-21" v:mID="5" v:groupContext="shape" v:layerMember="0" transform="translate(83.4301,-264.283)">
			<title>Dynamic connector.5</title>
			<path d="M0 393.8 L-20.22 393.8" class="st5"/>
		</g>
		<g id="shape7-26" v:mID="7" v:groupContext="shape" transform="translate(221.194,-294.047)">
			<title>Sheet.7</title>
			<desc>CORE DAQ API</desc>
			<v:textBlock v:margins="rect(4,4,4,4)" v:tabSpace="42.5197"/>
			<v:textRect cx="53.8583" cy="379.587" width="107.72" height="42.6035"/>
			<rect x="0" y="358.285" width="107.717" height="42.6035" class="st7"/>
			<text x="18.5" y="383.19" class="st4" v:langID="1033"><v:paragraph v:horizAlign="1"/><v:tabList/>CORE DAQ API</text>		</g>
		<g id="shape8-29" v:mID="8" v:groupContext="shape" v:layerMember="0" transform="translate(221.194,-318.934)">
			<title>Dynamic connector.8</title>
			<path d="M0 400.89 L-91.56 400.89 L-91.56 418.61" class="st8"/>
		</g>
		<g id="shape10-32" v:mID="10" v:groupContext="shape" transform="translate(-235.158,214.558) rotate(-90)">
			<title>Sheet.10</title>
			<desc>EMBEDED SERVER</desc>
			<v:textBlock v:margins="rect(4,4,4,4)" v:tabSpace="42.5197"/>
			<v:textRect cx="53.8583" cy="388.133" width="107.72" height="25.5118"/>
			<path d="M0 400.89 L107.72 400.89 L107.72 375.38 L0 375.38 L0 400.89 Z" class="st3"/>
			<text x="9.4" y="391.73" class="st4" v:langID="1033"><v:paragraph v:horizAlign="1"/><v:tabList/>EMBEDED SERVER</text>		</g>
		<g id="shape12-35" v:mID="12" v:groupContext="shape" transform="translate(8.99711,214.558) rotate(-90)">
			<title>Sheet.12</title>
			<desc>REMOTE CLIENT</desc>
			<v:textBlock v:margins="rect(4,4,4,4)" v:tabSpace="42.5197"/>
			<v:textRect cx="53.8583" cy="388.133" width="107.72" height="25.5118"/>
			<rect x="0" y="375.377" width="107.717" height="25.5118" class="st7"/>
			<text x="14.4" y="391.73" class="st4" v:langID="1033"><v:paragraph v:horizAlign="1"/><v:tabList/>REMOTE CLIENT</text>		</g>
		<g id="shape13-38" v:mID="13" v:groupContext="shape" v:layerMember="0" transform="translate(175.84,-230.351)">
			<title>Dynamic connector.13</title>
			<path d="M7.99 393.8 L8.35 393.8 L96.85 393.8 A2.3622 2.3622 0 1 1 101.57 393.8 L200.19 393.8" class="st9"/>
		</g>
		<g id="shape14-46" v:mID="14" v:groupContext="shape" transform="translate(83.4301,-176.493)">
			<title>Sheet.14</title>
			<rect x="0" y="276.164" width="92.4095" height="124.724" class="st7"/>
		</g>
		<g id="shape15-48" v:mID="15" v:groupContext="shape" transform="translate(83.4301,-10.666)">
			<title>Sheet.15</title>
			<path d="M0 400.89 L92.41 400.89 L92.41 276.16 L0 276.16 L0 400.89 Z" class="st3"/>
		</g>
		<g id="shape17-50" v:mID="17" v:groupContext="shape" v:layerMember="0" transform="translate(267.966,-10.666)">
			<title>Dynamic connector.17</title>
			<path d="M7.09 392.9 L7.09 392.54 L7.09 328.61" class="st1"/>
		</g>
		<g id="shape18-55" v:mID="18" v:groupContext="shape" transform="translate(62.4537,-304.761)">
			<title>Sheet.18</title>
			<desc>MODULE 1</desc>
			<v:textBlock v:margins="rect(4,4,4,4)" v:tabSpace="42.5197"/>
			<v:textRect cx="34.5827" cy="392.03" width="69.17" height="17.7165"/>
			<rect x="0" y="383.172" width="69.1654" height="17.7165" class="st7"/>
			<text x="8.09" y="395.63" class="st4" v:langID="1033"><v:paragraph v:horizAlign="1"/><v:tabList/>MODULE 1</text>		</g>
		<g id="shape20-58" v:mID="20" v:groupContext="shape" transform="translate(0.375,-262.241)">
			<title>Sheet.20</title>
			<desc>CH 0</desc>
			<v:textBlock v:margins="rect(4,4,4,4)" v:tabSpace="42.5197"/>
			<v:textRect cx="34.5827" cy="392.03" width="69.17" height="17.7165"/>
			<rect x="0" y="383.172" width="69.1654" height="17.7165" class="st7"/>
			<text x="23.25" y="395.63" class="st4" v:langID="1033"><v:paragraph v:horizAlign="1"/><v:tabList/>CH 0</text>		</g>
		<g id="shape21-61" v:mID="21" v:groupContext="shape" transform="translate(0.375,-205.548)">
			<title>Sheet.21</title>
			<desc>CH 7</desc>
			<v:textBlock v:margins="rect(4,4,4,4)" v:tabSpace="42.5197"/>
			<v:textRect cx="34.5827" cy="392.03" width="69.17" height="17.7165"/>
			<rect x="0" y="383.172" width="69.1654" height="17.7165" class="st7"/>
			<text x="23.25" y="395.63" class="st4" v:langID="1033"><v:paragraph v:horizAlign="1"/><v:tabList/>CH 7</text>		</g>
		<g id="shape22-64" v:mID="22" v:groupContext="shape" v:layerMember="0" transform="translate(328.91,-315.349)">
			<title>Dynamic connector.22</title>
			<path d="M0 400.89 L59.53 400.89 L59.53 422.19" class="st8"/>
		</g>
		<g id="shape23-67" v:mID="23" v:groupContext="shape" transform="translate(84.564,-138.225)">
			<title>Sheet.23</title>
			<desc>MODULE ...</desc>
			<v:textBlock v:margins="rect(4,4,4,4)" v:tabSpace="42.5197"/>
			<v:textRect cx="34.5827" cy="392.03" width="69.17" height="17.7165"/>
			<rect x="0" y="383.172" width="69.1654" height="17.7165" class="st7"/>
			<text x="6.59" y="395.63" class="st4" v:langID="1033"><v:paragraph v:horizAlign="1"/><v:tabList/>MODULE ...</text>		</g>
		<g id="group27-70" transform="translate(382.769,-10.6661)" v:mID="27" v:groupContext="group">
			<title>Sheet.27</title>
			<g id="shape25-71" v:mID="25" v:groupContext="shape">
				<title>Sheet.25</title>
				<rect x="0" y="280.416" width="189.921" height="120.472" class="st7"/>
			</g>
			<g id="shape26-73" v:mID="26" v:groupContext="shape" transform="translate(-7.99361E-14,-113.386)">
				<title>Sheet.26</title>
				<rect x="0" y="393.802" width="189.921" height="7.08662" class="st7"/>
			</g>
		</g>
		<g id="shape30-75" v:mID="30" v:groupContext="shape" transform="translate(394.107,-24.8393)">
			<title>Sheet.30</title>
			<desc>APP (RUN LOOP, EVENTS, ETC.)</desc>
			<v:textBlock v:margins="rect(4,4,4,4)" v:tabSpace="42.5197"/>
			<v:textRect cx="34.5827" cy="358.369" width="69.17" height="85.0394"/>
			<path d="M0 400.89 L69.17 400.89 L69.17 315.85 L0 315.85 L0 400.89 Z" class="st3"/>
			<text x="24.91" y="340.37" class="st4" v:langID="1033"><v:paragraph v:horizAlign="1"/><v:tabList/>APP <v:newlineChar/><tspan
						x="5.36" dy="1.2em" class="st10">(RUN LOOP, </tspan><tspan x="14.27" dy="1.2em" class="st10">EVENTS, </tspan><tspan
						x="22.2" dy="1.2em" class="st10">ETC.)</tspan></text>		</g>
		<g id="shape31-81" v:mID="31" v:groupContext="shape" transform="translate(473.477,-71.611)">
			<title>Sheet.31</title>
			<desc>UI LAYERS (ImGui)</desc>
			<v:textBlock v:margins="rect(4,4,4,4)" v:tabSpace="42.5197"/>
			<v:textRect cx="42.5197" cy="381.755" width="85.04" height="38.2677"/>
			<path d="M0 400.89 L85.04 400.89 L85.04 362.62 L0 362.62 L0 400.89 Z" class="st3"/>
			<text x="17.94" y="378.15" class="st4" v:langID="1033"><v:paragraph v:horizAlign="1"/><v:tabList/>UI LAYERS <tspan
						x="24.26" dy="1.2em" class="st10">(ImGui)</tspan></text>		</g>
		<g id="shape33-85" v:mID="33" v:groupContext="shape" v:layerMember="0" transform="translate(494.029,-186.712)">
			<title>Dynamic connector.33</title>
			<path d="M7.09 400.89 L7.09 456.46" class="st8"/>
		</g>
		<g id="shape34-88" v:mID="34" v:groupContext="shape" v:layerMember="0" transform="translate(390.043,-186.33)">
			<title>Dynamic connector.34</title>
			<path d="M7.09 400.89 L7.09 456.08" class="st8"/>
		</g>
		<g id="shape39-91" v:mID="39" v:groupContext="shape" transform="translate(221.194,-357.91)">
			<title>Sheet.39</title>
			<desc>THIRD PARTY EQUIPEMENT API</desc>
			<v:textBlock v:margins="rect(4,4,4,4)" v:tabSpace="42.5197"/>
			<v:textRect cx="53.8583" cy="379.587" width="107.72" height="42.6035"/>
			<rect x="0" y="358.285" width="107.717" height="42.6035" class="st7"/>
			<text x="21.7" y="375.99" class="st4" v:langID="1033"><v:paragraph v:horizAlign="1"/><v:tabList/>THIRD PARTY <tspan
						x="11.2" dy="1.2em" class="st10">EQUIPEMENT API</tspan></text>		</g>
		<g id="shape40-95" v:mID="40" v:groupContext="shape" v:layerMember="0" transform="translate(328.91,-379.212)">
			<title>Dynamic connector.40</title>
			<path d="M0 400.89 L70.25 400.89 L70.25 486.05" class="st8"/>
		</g>
		<g id="shape44-98" v:mID="44" v:groupContext="shape" transform="translate(429.54,-357.91)">
			<title>Sheet.44</title>
			<desc>ENGINEERING CALCULATION LIBRARY</desc>
			<v:textBlock v:margins="rect(4,4,4,4)" v:tabSpace="42.5197"/>
			<v:textRect cx="71.5748" cy="379.587" width="143.15" height="42.6035"/>
			<rect x="0" y="358.285" width="143.15" height="42.6035" class="st7"/>
			<text x="37.32" y="375.99" class="st4" v:langID="1033"><v:paragraph v:horizAlign="1"/><v:tabList/>ENGINEERING <tspan
						x="15.49" dy="1.2em" class="st10">CALCULATION LIBRARY</tspan></text>		</g>
		<g id="shape46-102" v:mID="46" v:groupContext="shape" transform="translate(473.477,-24.8393)">
			<title>Sheet.46</title>
			<desc>USER INPUT</desc>
			<v:textBlock v:margins="rect(4,4,4,4)" v:tabSpace="42.5197"/>
			<v:textRect cx="42.5197" cy="381.755" width="85.04" height="38.2677"/>
			<path d="M0 400.89 L85.04 400.89 L85.04 362.62 L0 362.62 L0 400.89 Z" class="st3"/>
			<text x="13.11" y="385.35" class="st4" v:langID="1033"><v:paragraph v:horizAlign="1"/><v:tabList/>USER INPUT</text>		</g>
		<g id="shape49-105" v:mID="49" v:groupContext="shape" v:layerMember="0" transform="translate(431.713,-379.076)">
			<title>Dynamic connector.49</title>
			<path d="M-2.17 400.89 L-12 400.89 L-12 648.83" class="st8"/>
		</g>
		<g id="group50-108" transform="translate(429.54,-186.712)" v:mID="50" v:groupContext="group">
			<title>Sheet.50</title>
			<g id="shape24-109" v:mID="24" v:groupContext="shape">
				<title>Sheet.24</title>
				<rect x="0" y="250.951" width="143.15" height="149.938" class="st7"/>
			</g>
			<g id="shape36-111" v:mID="36" v:groupContext="shape" transform="translate(42.5197,-101.339)">
				<title>Sheet.36</title>
				<desc>RENDERING / WINDOWING</desc>
				<v:textBlock v:margins="rect(4,4,4,4)" v:tabSpace="42.5197"/>
				<v:textRect cx="42.5197" cy="381.755" width="85.04" height="38.2677"/>
				<path d="M0 400.89 L85.04 400.89 L85.04 362.62 L0 362.62 L0 400.89 Z" class="st3"/>
				<text x="9.74" y="378.15" class="st4" v:langID="1033"><v:paragraph v:horizAlign="1"/><v:tabList/>RENDERING / <tspan
							x="9.62" dy="1.2em" class="st10">WINDOWING</tspan></text>			</g>
			<g id="shape37-115" v:mID="37" v:groupContext="shape" transform="translate(-366.873,347.03) rotate(-90)">
				<title>Sheet.37</title>
				<desc>GUI ENGINE</desc>
				<v:textBlock v:margins="rect(4,4,4,4)" v:tabSpace="42.5197"/>
				<v:textRect cx="42.874" cy="387.34" width="85.75" height="27.0962"/>
				<rect x="0" y="373.792" width="85.748" height="27.0962" class="st7"/>
				<text x="13.47" y="390.94" class="st4" v:langID="1033"><v:paragraph v:horizAlign="1"/><v:tabList/>GUI ENGINE</text>			</g>
			<g id="shape38-118" v:mID="38" v:groupContext="shape" transform="translate(42.5197,-53.8582)">
				<title>Sheet.38</title>
				<desc>PLATFORM DETECTION</desc>
				<v:textBlock v:margins="rect(4,4,4,4)" v:tabSpace="42.5197"/>
				<v:textRect cx="42.5197" cy="381.755" width="85.04" height="38.2677"/>
				<path d="M0 400.89 L85.04 400.89 L85.04 362.62 L0 362.62 L0 400.89 Z" class="st3"/>
				<text x="15.38" y="378.15" class="st4" v:langID="1033"><v:paragraph v:horizAlign="1"/><v:tabList/>PLATFORM <tspan
							x="14.56" dy="1.2em" class="st10">DETECTION</tspan></text>			</g>
			<g id="shape41-122" v:mID="41" v:groupContext="shape" transform="translate(8.50391,-21.2598)">
				<title>Sheet.41</title>
				<desc>FILESYSTEM I/O</desc>
				<v:textBlock v:margins="rect(4,4,4,4)" v:tabSpace="42.5197"/>
				<v:textRect cx="59.5276" cy="389.55" width="119.06" height="22.6772"/>
				<path d="M0 400.89 L119.06 400.89 L119.06 378.21 L0 378.21 L0 400.89 Z" class="st3"/>
				<text x="21.23" y="393.15" class="st4" v:langID="1033"><v:paragraph v:horizAlign="1"/><v:tabList/>FILESYSTEM I/O</text>			</g>
		</g>
		<g id="shape51-125" v:mID="51" v:groupContext="shape" transform="translate(2.35925,-234.249)">
			<title>Sheet.51</title>
			<desc>CH ...</desc>
			<v:textBlock v:margins="rect(4,4,4,4)" v:tabSpace="42.5197"/>
			<v:textRect cx="34.5827" cy="392.03" width="69.17" height="17.7165"/>
			<rect x="0" y="383.172" width="69.1654" height="17.7165" class="st7"/>
			<text x="21.74" y="395.63" class="st4" v:langID="1033"><v:paragraph v:horizAlign="1"/><v:tabList/>CH ...</text>		</g>
		<g id="shape1000-128" v:mID="1000" v:groupContext="shape" transform="translate(232.532,-221.055)">
			<title>Sheet.1000</title>
			<desc>ETH</desc>
			<v:textBlock v:margins="rect(4,4,4,4)" v:tabSpace="42.5197"/>
			<v:textRect cx="42.5197" cy="381.755" width="85.04" height="38.2677"/>
			<rect x="0" y="362.621" width="85.0394" height="38.2677" class="st11"/>
			<text x="32.93" y="385.35" class="st4" v:langID="1033"><v:paragraph v:horizAlign="1"/><v:tabList/>ETH</text>		</g>
	</g>
</svg>
