<?xml version="1.0" encoding="UTF-8"?>
<svg id="Layer_1" data-name="Layer 1" xmlns="http://www.w3.org/2000/svg" viewBox="0 0 282.99 252.37">
  <defs>
    <style>
      .cls-1 {
        fill: #fff;
      }

      .cls-2 {
        fill: #be1e2d;
      }
    </style>
  </defs>
  <path class="cls-1" d="M117.85,64.73l-8.13-36.5c-1.85-6.65-3.41-11.59-4.66-14.81-1.26-3.21-3.94-5.39-8.04-6.54l-6.15-1.38V0h87.3V5.51h-2.78c-.93,0-2.65,.4-5.16,1.21-2.51,.81-4.63,1.78-6.35,2.93-1.72,1.15-2.58,4.59-2.58,10.33,0,5.28,.89,12.63,2.68,22.04,1.79,9.41,3.87,19.92,6.25,31.5,2.38,11.59,5.49,26.57,9.33,44.93,3.83,18.37,6.61,31.68,8.33,39.94,1.72-7.8,3.8-17.22,6.25-28.23,2.45-11.02,5.82-26.57,10.12-46.65,4.3-20.08,7.11-33.85,8.43-41.32,1.32-7.46,1.98-13.94,1.98-19.45s-.79-9.06-2.38-11.36c-1.59-2.29-3.51-3.73-5.75-4.3-2.25-.57-4.37-.91-6.35-1.03-1.98-.11-3.84-.29-5.56-.52V0h51.19V5.51l-8.74,1.72c-4.24,1.15-7.55,3.22-9.93,6.2-2.38,2.99-4.5,8.26-6.36,15.84l-5.96,26.51-42.49,196.6h-15.89L120.33,74.71l-37.93,177.66h-15.89L26.01,55.09l-6.16-26.86c-1.99-7.34-3.81-12.57-5.46-15.67-1.66-3.1-4.14-4.99-7.44-5.68L0,5.51V0H85.71V5.51l-6.35,1.03c-3.04,.69-5.19,1.78-6.45,3.27-1.26,1.5-1.88,4.3-1.88,8.44,0,5.05,1.09,13.14,3.27,24.27,2.18,11.14,4.93,24.62,8.23,40.46,3.3,15.84,6.28,29.84,8.93,42,2.64,12.17,4.83,22.27,6.55,30.3l19.84-90.55Z"/>
  <rect class="cls-1" x="254.45" y="168.95" width="28.54" height="3.61"/>
  <path class="cls-2" d="M282.99,168.31h-28.54v-3.69c.28,0,.67-.04,1.15-.11,.48-.08,1.28-.38,2.39-.92,1.11-.54,1.9-1.81,2.36-3.81,.46-2,.76-5.39,.88-10.16l.12-10.62V29.32l-.12-10.62c-.12-4.92-.39-8.35-.82-10.27-.42-1.92-1.26-3.19-2.51-3.81l-3.27-.92V0h28.36V3.69l-3.27,.69c-1.25,.46-2.09,1.58-2.51,3.35-.42,1.77-.7,5.27-.82,10.51l-.12,10.62v110.59l.12,10.62c.12,5.08,.41,8.51,.88,10.27,.46,1.77,1.32,2.96,2.58,3.58l3.15,.69v3.69Z"/>
  <rect class="cls-1" x="254.45" y="173.19" width="28.54" height="3.61"/>
</svg>